<?xml version="1.0" standalone="no"?>
<!DOCTYPE svg PUBLIC "-//W3C//DTD SVG 20010904//EN"
 "http://www.w3.org/TR/2001/REC-SVG-20010904/DTD/svg10.dtd">
<svg version="1.0" xmlns="http://www.w3.org/2000/svg"
 width="40.000000pt" height="60.000000pt" viewBox="0 0 500.000000 500.000000"
 preserveAspectRatio="xMidYMid meet">

<g transform="translate(0.000000,500.000000) scale(0.100000,-0.100000)"
fill="#000000" stroke="none">
<path d="M0 2500 l0 -2500 2500 0 2500 0 0 2500 0 2500 -2500 0 -2500 0 0
-2500z m2625 955 c65 -390 119 -711 119 -712 1 0 328 -54 728 -120 401 -65
728 -120 728 -123 0 -3 -318 -56 -708 -119 -389 -62 -716 -115 -727 -118 -19
-4 -30 -60 -139 -721 -66 -394 -122 -720 -125 -724 -3 -4 -60 319 -126 717
l-119 724 -55 9 c-31 6 -359 59 -728 118 -370 60 -673 111 -673 114 0 3 116
24 258 47 141 23 469 76 728 118 l470 77 119 724 c66 398 122 718 126 711 3
-6 60 -331 124 -722z"/>
</g>
</svg>
